<svg width="942" height="942" viewBox="0 0 942 942" fill="none" xmlns="http://www.w3.org/2000/svg">
<g clip-path="url(#clip0_5181_279)" filter="url(#filter0_d_5181_279)">
<path d="M849.801 167.484C857.426 167.484 864.739 170.587 870.131 176.112C875.523 181.636 878.551 189.129 878.551 196.942L882.031 469.197L880.505 764.969C880.505 772.782 877.476 780.275 872.084 785.799C866.693 791.324 859.38 794.427 851.755 794.427H473.793L73.7957 796.911C66.1707 796.911 58.858 793.808 53.4664 788.283C48.0747 782.759 45.0457 775.266 45.0457 767.453V472.7V195.048C45.0457 187.235 48.0747 179.742 53.4664 174.218C58.858 168.693 66.1707 165.59 73.7957 165.59H475.258L849.801 167.484ZM92.25 127C69.3751 127 47.437 136.311 31.262 152.884C15.087 169.458 6 191.936 6 215.375V745.625C6 769.064 15.087 791.542 31.262 808.116C47.437 824.689 69.3751 834 92.25 834H839.75C862.625 834 884.563 824.689 900.738 808.116C916.913 791.542 926 769.064 926 745.625V215.375C926 191.936 916.913 169.458 900.738 152.884C884.563 136.311 862.625 127 839.75 127H92.25Z" fill="white"/>
<path d="M435.31 410.938C435.31 403.13 438.412 395.643 443.932 390.122C449.453 384.601 456.94 381.5 464.748 381.5H810.503C818.311 381.5 825.798 384.601 831.319 390.122C836.84 395.643 839.941 403.13 839.941 410.938C839.941 418.745 836.84 426.232 831.319 431.753C825.798 437.274 818.311 440.375 810.503 440.375H464.748C456.94 440.375 449.453 437.274 443.932 431.753C438.412 426.232 435.31 418.745 435.31 410.938ZM250.378 558.125C250.378 550.318 253.479 542.83 259 537.31C264.521 531.789 272.008 528.688 279.815 528.688H810.503C818.311 528.688 825.798 531.789 831.319 537.31C836.84 542.83 839.941 550.318 839.941 558.125C839.941 565.932 836.84 573.42 831.319 578.94C825.798 584.461 818.311 587.562 810.503 587.562H279.815C272.008 587.562 264.521 584.461 259 578.94C253.479 573.42 250.378 565.932 250.378 558.125ZM120.062 705.312C120.062 697.505 123.164 690.018 128.685 684.497C134.205 678.976 141.693 675.875 149.5 675.875H810.503C818.311 675.875 825.798 678.976 831.319 684.497C836.84 690.018 839.941 697.505 839.941 705.312C839.941 713.12 836.84 720.607 831.319 726.128C825.798 731.649 818.311 734.75 810.503 734.75H149.5C141.693 734.75 134.205 731.649 128.685 726.128C123.164 720.607 120.062 713.12 120.062 705.312Z" fill="white"/>
<path d="M521.641 340.04C523.061 338.619 523.859 336.692 523.859 334.684L523.859 311.666L523.858 311.666C523.858 311.657 523.859 311.648 523.859 311.639L523.728 274.152C523.713 269.977 520.327 266.603 516.152 266.603L511.375 266.603L511.375 259.921C511.376 255.738 507.983 252.348 503.8 252.346C499.616 252.346 496.224 255.738 496.225 259.923L496.225 266.601L174.019 266.602L174.019 259.968C174.019 255.784 170.628 252.393 166.443 252.393C162.259 252.393 158.868 255.784 158.868 259.968L158.868 266.923C154.163 267.403 149.562 268.434 145.145 269.983C139.735 265.859 133.061 263.566 126.203 263.567C108.99 263.567 94.9856 277.571 94.9849 294.785C94.9843 303.153 98.3143 311.052 104.103 316.84C104.58 317.317 105.081 317.775 105.591 318.223C105.451 319.215 105.331 320.213 105.241 321.218L103.618 339.267C103.255 343.281 106.101 346.874 110.091 347.444C120.198 348.886 129.059 354.243 135.033 362.522C141.009 370.8 143.302 380.894 141.49 390.942L124.43 485.512C122.805 494.524 125.24 503.721 131.112 510.747C131.708 511.461 132.332 512.143 132.982 512.794C138.738 518.55 146.533 521.803 154.761 521.804L202.126 521.802C212.491 521.802 221.44 514.416 223.403 504.239L236.372 437.031C239.469 420.986 253.576 409.34 269.918 409.34L304.11 409.34C324.557 409.34 342.553 396.279 348.888 376.837L353.18 363.665C355.66 356.055 362.658 350.924 370.641 350.819L420.269 350.808C422.278 350.807 424.204 350.01 425.625 348.589C427.046 347.169 427.844 345.242 427.843 343.233L427.843 342.259L516.288 342.259C518.293 342.258 520.22 341.46 521.641 340.04ZM110.134 294.786C110.134 285.926 117.342 278.718 126.203 278.718C127.013 278.718 127.807 278.796 128.591 278.911C127.191 279.982 125.829 281.113 124.515 282.313C118.893 287.452 114.369 293.541 111.092 300.243C110.47 298.518 110.134 296.677 110.134 294.786ZM274.567 394.034C269.459 393.802 264.726 391.925 261.141 388.693C257.541 385.444 255.532 381.155 255.532 376.655C255.531 364.529 265.149 354.344 278.052 351.635C272.209 364.852 271.949 381.023 277.394 394.19C277.394 394.19 274.926 394.05 274.567 394.034ZM304.108 394.191L294.562 394.191C286.096 382.452 286.75 362.431 296.036 350.91L327.321 350.872L327.321 350.94C332.338 350.972 335.96 352.05 337.504 353.951C339.217 356.061 338.588 359.442 338.581 359.475L338.606 359.361C338.606 359.361 338.623 359.359 338.646 359.354L334.48 372.141C330.183 385.33 317.978 394.19 304.108 394.191ZM412.746 335.658L284.88 335.772C260.342 335.773 240.381 354.114 240.38 376.654C240.38 384.872 243.635 392.593 249.586 398.596C235.384 405.047 224.599 418.068 221.494 434.16L208.525 501.368C207.933 504.429 205.242 506.651 202.123 506.651L154.76 506.652C150.104 506.651 145.721 504.597 142.736 501.029C139.751 497.457 138.513 492.781 139.338 488.199L156.398 393.629C158.948 379.496 155.722 365.298 147.317 353.652C145.73 351.455 143.996 349.412 142.139 347.518L198.95 347.518C203.135 347.518 206.526 344.126 206.526 339.943C206.524 335.758 203.134 332.367 198.95 332.367L119.45 332.367L120.331 322.573C121.904 305.095 133.125 290.847 148.511 284.835L148.511 308.796C148.511 310.889 149.359 312.783 150.73 314.153C152.1 315.524 153.994 316.372 156.087 316.372C160.27 316.372 163.662 312.98 163.661 308.797L163.661 281.783C164.104 281.77 164.545 281.751 164.991 281.751L174.159 281.751L174.159 308.797C174.159 310.889 175.007 312.783 176.378 314.154C177.748 315.524 179.643 316.373 181.735 316.372C185.919 316.372 189.311 312.981 189.309 308.798L189.309 281.753L199.807 281.753L199.806 308.797C199.806 310.89 200.654 312.783 202.025 314.154C203.395 315.525 205.29 316.374 207.381 316.372C211.565 316.374 214.957 312.982 214.957 308.797L214.957 281.752L225.455 281.752L225.455 308.797C225.455 310.889 226.304 312.783 227.674 314.154C229.044 315.524 230.939 316.373 233.031 316.372C237.216 316.372 240.607 312.981 240.606 308.797L240.606 281.752L508.604 281.754L508.683 304.091L446.231 304.091C437.273 304.091 428.848 307.58 422.513 313.915C416.645 319.782 413.219 327.442 412.746 335.658ZM431.161 327.108C431.774 326.233 432.455 325.398 433.226 324.628C436.7 321.154 441.319 319.242 446.231 319.241L508.709 319.241L508.709 327.11L431.161 327.108Z" fill="white" stroke="white" stroke-width="1.56251"/>
<path d="M223.768 409.009C223.621 404.826 220.114 401.556 215.932 401.702L172.999 403.201C168.817 403.345 165.546 406.854 165.692 411.035C165.765 413.126 166.679 414.99 168.097 416.311C169.514 417.633 171.437 418.415 173.528 418.342L216.462 416.842C220.643 416.698 223.914 413.191 223.768 409.009Z" fill="white" stroke="white" stroke-width="1.56251"/>
<path d="M217.594 436.091C217.447 431.908 213.94 428.638 209.758 428.784L170.044 430.171C165.863 430.316 162.592 433.824 162.738 438.004C162.811 440.096 163.725 441.959 165.142 443.281C166.56 444.603 168.483 445.385 170.574 445.311L210.288 443.924C214.47 443.78 217.74 440.273 217.594 436.091Z" fill="white" stroke="white" stroke-width="1.56251"/>
<path d="M210.885 463.193C210.738 459.01 207.231 455.74 203.05 455.886L167.629 457.123C163.446 457.268 160.175 460.776 160.322 464.957C160.395 467.049 161.309 468.912 162.726 470.234C164.144 471.555 166.067 472.337 168.157 472.264L203.578 471.027C207.76 470.881 211.032 467.373 210.885 463.193Z" fill="white" stroke="white" stroke-width="1.56251"/>
<path d="M206.321 490.217C206.174 486.036 202.668 482.765 198.486 482.91L163.065 484.147C158.882 484.293 155.611 487.801 155.758 491.982C155.831 494.073 156.744 495.936 158.162 497.258C159.579 498.58 161.502 499.362 163.593 499.288L199.014 498.052C203.196 497.907 206.467 494.398 206.321 490.217Z" fill="white" stroke="white" stroke-width="1.56251"/>
<path d="M244.099 341.139C243.955 336.959 240.445 333.688 236.265 333.833L224.457 334.245C220.275 334.391 217.005 337.899 217.151 342.081C217.224 344.172 218.137 346.036 219.555 347.357C220.972 348.679 222.895 349.461 224.986 349.388L236.793 348.975C240.975 348.829 244.246 345.32 244.099 341.139Z" fill="white" stroke="white" stroke-width="1.56251"/>
</g>
<defs>
<filter id="filter0_d_5181_279" x="-4" y="0" width="950" height="950" filterUnits="userSpaceOnUse" color-interpolation-filters="sRGB">
<feFlood flood-opacity="0" result="BackgroundImageFix"/>
<feColorMatrix in="SourceAlpha" type="matrix" values="0 0 0 0 0 0 0 0 0 0 0 0 0 0 0 0 0 0 127 0" result="hardAlpha"/>
<feOffset dy="4"/>
<feGaussianBlur stdDeviation="2"/>
<feComposite in2="hardAlpha" operator="out"/>
<feColorMatrix type="matrix" values="0 0 0 0 0 0 0 0 0 0 0 0 0 0 0 0 0 0 0.25 0"/>
<feBlend mode="normal" in2="BackgroundImageFix" result="effect1_dropShadow_5181_279"/>
<feBlend mode="normal" in="SourceGraphic" in2="effect1_dropShadow_5181_279" result="shape"/>
</filter>
<clipPath id="clip0_5181_279">
<rect width="942" height="942" fill="white"/>
</clipPath>
</defs>
</svg>
