<svg width="371" height="364" viewBox="0 0 371 364" fill="none" xmlns="http://www.w3.org/2000/svg">
<path d="M301.337 42.6493C301.337 41.0281 300.638 39.4733 299.394 38.3272L285.135 25.1926L285.134 25.1933C285.128 25.1884 285.124 25.1827 285.118 25.1778L261.814 3.86137C259.219 1.48785 255.031 1.49492 252.444 3.87693L249.485 6.60255L245.346 2.79021C242.756 0.402555 238.553 0.403969 235.961 2.79021C233.369 5.17787 233.369 9.04818 235.962 11.4358L240.099 15.2468L40.499 199.104L36.3894 195.318C33.7965 192.93 29.5955 192.93 27.0034 195.318C24.4113 197.706 24.4113 201.575 27.0034 203.963L31.3118 207.932C28.6944 210.891 26.483 214.105 24.706 217.508C18.8002 218.242 13.2452 220.742 8.99744 224.656C-1.66581 234.478 -1.66581 250.46 8.99744 260.283C14.1809 265.059 21.1368 267.665 28.3083 267.665C28.8993 267.665 29.4934 267.641 30.0868 267.605C30.6149 268.252 31.1591 268.889 31.7256 269.514L41.9006 280.739C44.1627 283.237 48.1518 283.663 50.9765 281.711C58.1312 276.767 66.9384 274.768 75.7679 276.083C84.5982 277.396 92.2717 281.848 97.3738 288.616L145.39 352.313C149.966 358.383 157.172 362.241 165.162 362.9C165.973 362.967 166.782 363.001 167.588 363.001C174.72 363.001 181.564 360.409 186.661 355.715L216.002 328.687C222.423 322.772 223.391 313.451 218.303 306.523L184.702 260.773C176.682 249.85 178.206 235.155 188.33 225.831L209.512 206.32C222.178 194.653 225.235 176.931 217.115 162.222L211.614 152.257C208.436 146.499 209.593 139.578 214.473 134.963L245.21 106.638C246.455 105.491 247.154 103.937 247.154 102.316C247.154 100.695 246.455 99.1401 245.209 97.994L244.606 97.4382L299.396 46.97C300.638 45.8253 301.337 44.2706 301.337 42.6493ZM18.3827 251.64C12.8937 246.584 12.8937 238.357 18.3827 233.301C18.8847 232.839 19.4251 232.431 19.9823 232.049C19.7781 233.459 19.6346 234.882 19.5648 236.316C19.2654 242.456 20.2349 248.513 22.3565 254.207C20.9026 253.577 19.554 252.718 18.3827 251.64ZM181.728 214.443C178.42 217.226 174.326 218.856 170.102 219.057C165.859 219.258 161.958 217.957 159.17 215.389C151.658 208.47 151.306 197.17 157.621 188.262C162.19 199.137 172.046 208.513 183.576 212.92C183.576 212.92 181.961 214.248 181.728 214.443ZM200.126 197.677L194.212 203.124C181.695 201.256 169.698 189.459 168.313 177.586L187.67 159.712L187.712 159.751C190.84 156.907 193.752 155.455 195.886 155.659C198.254 155.885 199.959 158.173 199.975 158.197L199.92 158.117C199.92 158.117 199.929 158.106 199.941 158.091L205.281 167.764C210.79 177.742 208.717 189.762 200.126 197.677ZM231.164 102.286L152.025 175.314C136.825 189.316 135.821 211.172 149.784 224.034C154.874 228.723 161.673 231.272 169.079 231.301C164.277 243.087 165.663 256.67 173.708 267.625L207.308 313.375C208.838 315.46 208.547 318.263 206.615 320.043L177.275 347.069C174.39 349.725 170.402 351.055 166.343 350.722C162.281 350.387 158.617 348.425 156.29 345.34L108.274 281.642C101.098 272.122 90.3044 265.861 77.8826 264.012C75.5392 263.664 73.1996 263.488 70.8754 263.466L106.069 231.049C108.661 228.661 108.661 224.791 106.069 222.404C103.476 220.017 99.2751 220.017 96.683 222.404L47.4341 267.768L41.9129 261.676C32.0602 250.806 30.185 236.273 35.9918 224.063L50.8353 237.735C52.1317 238.929 53.8304 239.526 55.5283 239.526C57.2262 239.526 58.9256 238.929 60.2213 237.735C62.8134 235.348 62.8134 231.477 60.2213 229.091L43.4865 213.676C43.7528 213.416 44.0146 213.154 44.2909 212.899L49.9702 207.668L66.7243 223.1C68.0207 224.295 69.7194 224.891 71.4173 224.891C73.1152 224.891 74.8146 224.295 76.1103 223.1C78.7024 220.713 78.7024 216.842 76.1103 214.456L59.3562 199.024L65.8592 193.034L82.6125 208.466C83.9089 209.66 85.6068 210.257 87.3055 210.257C89.0033 210.257 90.7028 209.66 91.9977 208.466C94.5906 206.079 94.5906 202.208 91.9985 199.82L75.2444 184.388L81.7474 178.398L98.5014 193.83C99.7979 195.024 101.497 195.621 103.194 195.621C104.892 195.621 106.592 195.024 107.887 193.83C110.48 191.442 110.48 187.572 107.887 185.185L91.1334 169.752L257.155 16.8291L271.04 29.5303L232.352 65.1663C226.804 70.2782 223.746 77.0763 223.746 84.3057C223.745 91.0021 226.368 97.3279 231.164 102.286ZM237.276 86.8999C237.114 86.0507 237.019 85.1853 237.019 84.3057C237.019 80.3414 238.696 76.6146 241.738 73.8112L280.442 38.1604L285.316 42.65L237.276 86.8999Z" fill="white" stroke="white" stroke-width="1.56251"/>
<g clip-path="url(#clip0_5180_221)">
<path d="M301 237.5C284.755 237.5 269.176 231.231 257.69 220.073C246.203 208.914 239.75 193.78 239.75 178C239.75 162.22 246.203 147.086 257.69 135.927C269.176 124.769 284.755 118.5 301 118.5C317.245 118.5 332.824 124.769 344.31 135.927C355.797 147.086 362.25 162.22 362.25 178C362.25 193.78 355.797 208.914 344.31 220.073C332.824 231.231 317.245 237.5 301 237.5ZM301 246C319.565 246 337.37 238.836 350.497 226.083C363.625 213.331 371 196.035 371 178C371 159.965 363.625 142.669 350.497 129.917C337.37 117.164 319.565 110 301 110C282.435 110 264.63 117.164 251.503 129.917C238.375 142.669 231 159.965 231 178C231 196.035 238.375 213.331 251.503 226.083C264.63 238.836 282.435 246 301 246Z" fill="white"/>
<path d="M326.988 152.245L326.813 152.432L296.424 190.045L278.11 172.246C276.866 171.119 275.221 170.506 273.52 170.536C271.82 170.565 270.198 171.234 268.996 172.402C267.793 173.57 267.105 175.146 267.075 176.797C267.045 178.449 267.676 180.047 268.835 181.256L291.988 203.755C292.611 204.36 293.354 204.836 294.171 205.156C294.989 205.476 295.864 205.633 296.745 205.617C297.626 205.601 298.495 205.413 299.3 205.064C300.105 204.715 300.829 204.212 301.429 203.585L336.359 161.17C337.548 159.957 338.198 158.339 338.169 156.664C338.14 154.989 337.433 153.393 336.202 152.22C334.971 151.048 333.314 150.393 331.589 150.398C329.865 150.402 328.212 151.066 326.988 152.245Z" fill="white"/>
</g>
<path d="M156.879 252.202C154.286 249.814 150.085 249.814 147.493 252.202L120.88 276.716C118.287 279.102 118.287 282.973 120.88 285.36C122.176 286.554 123.875 287.151 125.573 287.151C127.27 287.151 128.97 286.554 130.266 285.36L156.878 260.846C159.471 258.459 159.471 254.59 156.879 252.202Z" fill="white" stroke="white" stroke-width="1.56251"/>
<path d="M169.105 271.583C166.512 269.195 162.311 269.195 159.719 271.583L135.101 294.258C132.509 296.645 132.509 300.516 135.101 302.903C136.397 304.097 138.096 304.694 139.794 304.694C141.492 304.694 143.191 304.097 144.487 302.903L169.104 280.227C171.697 277.84 171.697 273.971 169.105 271.583Z" fill="white" stroke="white" stroke-width="1.56251"/>
<path d="M180.999 291.271C178.406 288.883 174.205 288.883 171.613 291.271L149.657 311.495C147.064 313.882 147.064 317.753 149.656 320.14C150.953 321.334 152.651 321.93 154.349 321.93C156.047 321.93 157.746 321.334 159.042 320.14L180.998 299.915C183.59 297.528 183.59 293.657 180.999 291.271Z" fill="white" stroke="white" stroke-width="1.56251"/>
<path d="M194.221 309.731C191.629 307.345 187.428 307.344 184.835 309.731L162.879 329.955C160.286 332.344 160.286 336.214 162.879 338.601C164.175 339.795 165.873 340.392 167.572 340.392C169.269 340.392 170.969 339.795 172.265 338.601L194.221 318.377C196.813 315.99 196.813 312.119 194.221 309.731Z" fill="white" stroke="white" stroke-width="1.56251"/>
<path d="M129.355 200.957C126.765 198.569 122.562 198.57 119.97 200.957L112.651 207.698C110.059 210.086 110.059 213.956 112.652 216.344C113.947 217.537 115.646 218.135 117.344 218.135C119.042 218.135 120.741 217.538 122.037 216.344L129.355 209.602C131.947 207.215 131.947 203.344 129.355 200.957Z" fill="white" stroke="white" stroke-width="1.56251"/>
<defs>
<clipPath id="clip0_5180_221">
<rect width="140" height="136" fill="white" transform="translate(231 110)"/>
</clipPath>
</defs>
</svg>
