<svg width="393" height="362" viewBox="0 0 393 362" fill="none" xmlns="http://www.w3.org/2000/svg">
<g clip-path="url(#clip0_5178_222)">
<path d="M346.669 41.6493C346.669 40.0281 345.969 38.4733 344.725 37.3272L330.466 24.1926L330.465 24.1933C330.46 24.1884 330.455 24.1827 330.449 24.1778L307.145 2.86137C304.55 0.487854 300.362 0.494925 297.775 2.87693L294.816 5.60255L290.677 1.79021C288.087 -0.597445 283.884 -0.596031 281.292 1.79021C278.7 4.17787 278.7 8.04818 281.293 10.4358L285.43 14.2468L85.8303 198.104L81.7207 194.318C79.1278 191.93 74.9268 191.93 72.3347 194.318C69.7426 196.706 69.7426 200.575 72.3347 202.963L76.6431 206.932C74.0257 209.891 71.8143 213.105 70.0373 216.508C64.1315 217.242 58.5765 219.742 54.3287 223.656C43.6655 233.478 43.6655 249.46 54.3287 259.283C59.5122 264.059 66.4681 266.665 73.6396 266.665C74.2306 266.665 74.8247 266.641 75.4181 266.605C75.9462 267.252 76.4904 267.889 77.0569 268.514L87.2319 279.739C89.494 282.237 93.4831 282.663 96.3078 280.711C103.462 275.767 112.27 273.768 121.099 275.083C129.929 276.396 137.603 280.848 142.705 287.616L190.721 351.313C195.297 357.383 202.503 361.241 210.493 361.9C211.305 361.967 212.114 362.001 212.92 362.001C220.051 362.001 226.895 359.409 231.993 354.715L261.334 327.687C267.754 321.772 268.722 312.451 263.634 305.523L230.034 259.773C222.013 248.85 223.538 234.155 233.661 224.831L254.843 205.32C267.509 193.653 270.566 175.931 262.446 161.222L256.945 151.257C253.767 145.499 254.924 138.578 259.804 133.963L290.542 105.638C291.786 104.491 292.485 102.937 292.485 101.316C292.485 99.6948 291.786 98.1401 290.541 96.9939L289.937 96.4382L344.728 45.97C345.969 44.8253 346.669 43.2706 346.669 41.6493ZM63.714 250.64C58.225 245.584 58.225 237.357 63.714 232.301C64.216 231.839 64.7563 231.431 65.3136 231.049C65.1094 232.459 64.9659 233.882 64.8961 235.316C64.5967 241.456 65.5662 247.513 67.6877 253.207C66.2339 252.577 64.8853 251.718 63.714 250.64ZM227.059 213.443C223.751 216.226 219.657 217.856 215.434 218.057C211.19 218.258 207.29 216.957 204.502 214.389C196.989 207.47 196.638 196.17 202.953 187.262C207.521 198.137 217.377 207.513 228.908 211.92C228.908 211.92 227.292 213.248 227.059 213.443ZM245.457 196.677L239.543 202.124C227.026 200.256 215.029 188.459 213.644 176.586L233.001 158.712L233.043 158.751C236.171 155.907 239.083 154.455 241.217 154.659C243.585 154.885 245.29 157.173 245.306 157.197L245.251 157.117C245.251 157.117 245.26 157.106 245.272 157.091L250.612 166.764C256.121 176.742 254.048 188.762 245.457 196.677ZM276.496 101.286L197.356 174.314C182.156 188.316 181.152 210.172 195.115 223.034C200.206 227.723 207.005 230.272 214.41 230.301C209.608 242.087 210.994 255.67 219.039 266.625L252.639 312.375C254.169 314.46 253.878 317.263 251.946 319.043L222.606 346.069C219.721 348.725 215.733 350.055 211.674 349.722C207.612 349.387 203.948 347.425 201.621 344.34L153.605 280.642C146.429 271.122 135.636 264.861 123.214 263.012C120.87 262.664 118.531 262.488 116.207 262.466L151.4 230.049C153.992 227.661 153.992 223.791 151.4 221.404C148.807 219.017 144.606 219.017 142.014 221.404L92.7654 266.768L87.2442 260.676C77.3915 249.806 75.5163 235.273 81.3231 223.063L96.1666 236.735C97.463 237.929 99.1617 238.526 100.86 238.526C102.557 238.526 104.257 237.929 105.553 236.735C108.145 234.348 108.145 230.477 105.553 228.091L88.8178 212.676C89.0841 212.416 89.3459 212.154 89.6222 211.899L95.3015 206.668L112.056 222.1C113.352 223.295 115.051 223.891 116.749 223.891C118.446 223.891 120.146 223.295 121.442 222.1C124.034 219.713 124.034 215.842 121.442 213.456L104.688 198.024L111.19 192.034L127.944 207.466C129.24 208.66 130.938 209.257 132.637 209.257C134.335 209.257 136.034 208.66 137.329 207.466C139.922 205.079 139.922 201.208 137.33 198.82L120.576 183.388L127.079 177.398L143.833 192.83C145.129 194.024 146.828 194.621 148.526 194.621C150.224 194.621 151.923 194.024 153.219 192.83C155.811 190.442 155.811 186.572 153.219 184.185L136.465 168.752L302.486 15.8291L316.371 28.5303L277.684 64.1663C272.135 69.2782 269.077 76.0763 269.077 83.3057C269.076 90.0021 271.699 96.3279 276.496 101.286ZM282.607 85.8998C282.445 85.0507 282.35 84.1853 282.35 83.3057C282.35 79.3414 284.027 75.6146 287.07 72.8112L325.773 37.1604L330.648 41.65L282.607 85.8998Z" fill="white" stroke="white" stroke-width="1.56251"/>
<path d="M202.21 251.202C199.618 248.814 195.417 248.814 192.824 251.202L166.212 275.716C163.619 278.102 163.619 281.973 166.211 284.36C167.507 285.554 169.206 286.151 170.904 286.151C172.602 286.151 174.301 285.554 175.597 284.36L202.21 259.846C204.803 257.459 204.803 253.59 202.21 251.202Z" fill="white" stroke="white" stroke-width="1.56251"/>
<path d="M214.436 270.583C211.843 268.195 207.642 268.195 205.05 270.583L180.433 293.258C177.84 295.645 177.84 299.516 180.432 301.903C181.728 303.097 183.427 303.694 185.125 303.694C186.823 303.694 188.522 303.097 189.818 301.903L214.435 279.227C217.028 276.84 217.028 272.971 214.436 270.583Z" fill="white" stroke="white" stroke-width="1.56251"/>
<path d="M226.33 290.271C223.737 287.883 219.536 287.883 216.944 290.271L194.988 310.495C192.395 312.882 192.395 316.753 194.987 319.14C196.284 320.334 197.983 320.93 199.68 320.93C201.378 320.93 203.078 320.334 204.373 319.14L226.329 298.915C228.922 296.528 228.922 292.657 226.33 290.271Z" fill="white" stroke="white" stroke-width="1.56251"/>
<path d="M239.553 308.731C236.96 306.345 232.759 306.344 230.167 308.731L208.211 328.955C205.618 331.344 205.618 335.214 208.21 337.601C209.506 338.795 211.204 339.392 212.903 339.392C214.601 339.392 216.3 338.795 217.596 337.601L239.552 317.377C242.145 314.99 242.145 311.119 239.553 308.731Z" fill="white" stroke="white" stroke-width="1.56251"/>
<path d="M174.686 199.957C172.096 197.569 167.893 197.57 165.301 199.957L157.982 206.698C155.39 209.086 155.39 212.956 157.983 215.344C159.279 216.537 160.977 217.135 162.675 217.135C164.373 217.135 166.073 216.538 167.368 215.344L174.686 208.602C177.279 206.215 177.279 202.344 174.686 199.957Z" fill="white" stroke="white" stroke-width="1.56251"/>
<path d="M369.668 147.101C371.016 148.449 371.771 150.278 371.768 152.188C371.765 154.097 371.004 155.929 369.652 157.281L339.065 187.869L369.558 218.363C370.906 219.71 371.662 221.54 371.659 223.449C371.656 225.359 370.895 227.191 369.543 228.543C368.191 229.895 366.359 230.656 364.449 230.659C362.54 230.662 360.711 229.906 359.363 228.558L328.869 198.064L298.281 228.652C296.929 230.004 295.097 230.765 293.188 230.768C291.278 230.771 289.449 230.016 288.101 228.668C286.753 227.32 285.997 225.49 286 223.581C286.003 221.672 286.764 219.84 288.116 218.487L318.704 187.9L288.21 157.406C286.862 156.058 286.107 154.228 286.109 152.319C286.112 150.41 286.874 148.578 288.226 147.226C289.578 145.874 291.41 145.112 293.319 145.109C295.228 145.106 297.058 145.862 298.406 147.21L328.9 177.704L359.487 147.116C360.84 145.764 362.672 145.003 364.581 145C366.49 144.997 368.32 145.753 369.668 147.101Z" fill="white"/>
</g>
<defs>
<clipPath id="clip0_5178_222">
<rect width="393" height="362" fill="white"/>
</clipPath>
</defs>
</svg>
