<svg width="574" height="350" viewBox="0 0 574 350" fill="none" xmlns="http://www.w3.org/2000/svg">
<mask id="mask0_5185_302" style="mask-type:alpha" maskUnits="userSpaceOnUse" x="0" y="0" width="574" height="350">
<rect width="574" height="350" fill="#D9D9D9"/>
</mask>
<g mask="url(#mask0_5185_302)">
<path d="M484.594 141.992C486.063 140.622 486.928 138.724 486.998 136.717L487.802 113.713C487.802 113.713 487.801 113.712 487.801 113.712V113.712C487.801 113.712 487.8 113.712 487.8 113.712C487.801 113.703 487.802 113.695 487.802 113.686L488.98 76.2165C489.11 72.0441 485.844 68.554 481.671 68.4077V68.4077C479.035 68.3156 476.972 66.1037 477.064 63.4673L477.131 61.564C477.278 57.3834 474.005 53.8764 469.825 53.7292C465.643 53.5831 462.135 56.854 461.99 61.0365V61.0365C461.861 64.7227 458.768 67.6067 455.082 67.4779L146.377 56.6989C142.716 56.571 139.851 53.4991 139.979 49.8374V49.8374C140.124 45.655 136.854 42.148 132.672 42.002C128.49 41.8559 124.983 45.1263 124.837 49.3081V49.3081C124.699 53.256 121.582 56.4055 117.698 57.1241C117.084 57.2377 116.472 57.3608 115.863 57.4934C112.65 58.1922 109.293 57.487 106.438 55.8586C102.081 53.3742 97.146 51.9417 92.0665 51.7648C74.8638 51.164 60.379 64.6714 59.7776 81.8747C59.4849 90.2376 62.5373 98.2475 68.1201 104.234V104.234C68.9848 105.162 69.4166 106.419 69.2363 107.674C69.1897 107.998 69.1459 108.323 69.1053 108.649L66.8526 126.63C66.3503 130.629 69.0693 134.32 73.0368 135.028C83.0874 136.823 91.7557 142.485 97.4373 150.967C103.121 159.449 105.06 169.617 102.898 179.596L82.5487 273.513C80.6095 282.462 82.7225 291.739 88.3457 298.966C88.9164 299.7 89.5161 300.404 90.1435 301.076C95.6952 307.03 103.371 310.553 111.594 310.841L158.93 312.493C169.289 312.854 178.49 305.785 180.808 295.682L196.114 228.968C199.77 213.041 214.274 201.894 230.606 202.465L264.777 203.659C285.212 204.372 303.653 191.946 310.663 172.737L315.411 159.723C318.155 152.204 325.328 147.321 333.311 147.494L382.909 149.216C384.916 149.285 386.869 148.555 388.339 147.185C389.808 145.815 390.673 143.917 390.742 141.909V141.909C390.761 141.372 391.212 140.951 391.749 140.97L479.167 144.023C481.171 144.092 483.125 143.362 484.594 141.992ZM74.9172 82.4046C75.2265 73.5494 82.6819 66.597 91.5371 66.9063V66.9063C92.4318 66.9375 92.6983 68.0631 91.9888 68.609C91.2215 69.1993 90.4663 69.8094 89.725 70.441C85.3693 74.1518 81.6138 78.4206 78.527 83.1064C77.3819 84.8447 74.8453 84.4849 74.9172 82.4046V82.4046ZM235.787 187.33C230.689 186.92 226.025 184.88 222.556 181.524C219.07 178.151 217.213 173.795 217.37 169.298C217.517 165.06 218.832 161.1 221.036 157.646C226.44 149.173 235.512 158.284 235.379 168.333C235.303 173.988 236.069 179.626 237.695 184.905C238.081 186.158 237.093 187.437 235.787 187.33V187.33ZM265.304 188.518V188.518C259.314 188.309 253.472 185.29 251.871 179.513C249.582 171.257 250.198 161.618 253.529 153.584C255.975 147.681 262.458 145.107 268.845 145.322L289.98 146.034C289.999 146.035 290.014 146.051 290.013 146.07V146.07C290.013 146.088 290.028 146.104 290.046 146.105C295.041 146.316 298.61 147.519 300.084 149.469C301.723 151.637 300.976 154.994 300.968 155.027L300.993 154.925C300.995 154.918 300.993 154.914 301 154.913V154.913C301.013 154.912 301.031 154.923 301.027 154.935L296.427 167.542C291.673 180.573 279.165 189.002 265.304 188.518ZM386.439 112.423C376.428 121.756 365.235 133.449 351.557 132.983L248.127 129.464C223.604 128.608 203.014 146.241 202.227 168.768V168.768C201.814 180.599 198.744 196.257 191.239 205.412C186.543 211.14 183.088 217.982 181.345 225.58L166.039 292.294C165.341 295.333 162.573 297.459 159.457 297.35L112.122 295.698C107.47 295.535 103.16 293.329 100.301 289.66C97.443 285.985 96.3691 281.269 97.3537 276.718L117.703 182.802C120.746 168.766 118.017 154.464 110.023 142.532V142.532C108.358 140.047 110.104 136.397 113.092 136.501L161.839 138.203C166.021 138.349 169.529 135.078 169.674 130.897C169.819 126.715 166.549 123.208 162.368 123.062L92.7438 120.63C87.4648 120.446 83.482 115.771 84.1389 110.53V110.53C85.2523 101.645 88.8468 93.6881 94.1713 87.2987C101.546 78.4488 113.184 86.232 112.782 97.745V97.745C112.709 99.8365 113.491 101.759 114.812 103.176C116.134 104.594 117.998 105.508 120.089 105.58C124.27 105.727 127.778 102.456 127.923 98.2749L128.819 72.6069C128.845 71.8663 129.456 71.2661 130.196 71.292V71.292V71.292C135.256 71.4687 139.215 75.714 139.039 80.7742L138.415 98.6407C138.342 100.732 139.123 102.655 140.445 104.072C141.767 105.489 143.63 106.404 145.721 106.476C149.903 106.622 153.411 103.351 153.555 99.1707L154.316 77.3874C154.417 74.4904 156.848 72.2239 159.745 72.3251V72.3251C162.642 72.4263 164.908 74.8568 164.807 77.7538L164.046 99.5364C163.973 101.628 164.754 103.55 166.076 104.968C167.398 106.385 169.262 107.299 171.352 107.371C175.534 107.518 179.042 104.247 179.188 100.065L179.949 78.282C180.05 75.3849 182.48 73.1184 185.377 73.2196V73.2196C188.274 73.3208 190.541 75.7512 190.44 78.6482L189.68 100.431C189.607 102.522 190.388 104.445 191.71 105.862C193.032 107.28 194.895 108.194 196.986 108.266C201.168 108.412 204.676 105.141 204.821 100.96V100.96C205.342 86.0327 217.866 74.3542 232.794 74.8756L462.477 82.8979C468.627 83.1127 473.444 88.2604 473.25 94.4103V94.4103C473.056 100.591 467.877 105.437 461.698 105.221L410.485 103.433C401.532 103.121 392.991 106.313 386.439 112.423V112.423ZM397.851 126.023C396.491 125.976 395.776 124.431 396.771 123.503V123.503C400.364 120.153 405.047 118.403 409.957 118.574L468.464 120.617C470.636 120.693 472.334 122.514 472.259 124.686V124.686C472.183 126.857 470.361 128.557 468.189 128.481L397.851 126.023Z" fill="white" stroke="white" stroke-width="1.56251"/>
<path d="M184.496 200.523C184.495 196.338 181.104 192.947 176.92 192.947L133.96 192.947C129.776 192.945 126.384 196.337 126.385 200.521C126.385 202.614 127.233 204.508 128.604 205.878C129.974 207.249 131.869 208.097 133.961 208.097L176.921 208.097C181.105 208.098 184.496 204.707 184.496 200.523Z" fill="white" stroke="white" stroke-width="1.56251"/>
<path d="M177.38 227.373C177.38 223.188 173.989 219.797 169.805 219.797L130.066 219.797C125.883 219.797 122.491 223.188 122.491 227.371C122.491 229.464 123.34 231.358 124.71 232.728C126.08 234.099 127.975 234.948 130.067 234.947L169.805 234.947C173.99 234.948 177.38 231.557 177.38 227.373Z" fill="white" stroke="white" stroke-width="1.56251"/>
<path d="M169.73 254.224C169.729 250.039 166.338 246.649 162.154 246.649L126.711 246.649C122.527 246.648 119.135 250.039 119.136 254.223C119.136 256.316 119.984 258.21 121.354 259.58C122.725 260.951 124.619 261.799 126.711 261.799L162.154 261.799C166.338 261.799 169.73 258.407 169.73 254.224Z" fill="white" stroke="white" stroke-width="1.56251"/>
<path d="M164.226 281.073C164.224 276.89 160.834 273.498 156.65 273.497L121.208 273.497C117.022 273.497 113.631 276.888 113.631 281.072C113.631 283.165 114.479 285.058 115.85 286.429C117.22 287.8 119.115 288.648 121.207 288.648L156.649 288.648C160.834 288.649 164.226 285.257 164.226 281.073Z" fill="white" stroke="white" stroke-width="1.56251"/>
<path d="M207.184 133.404C207.185 129.221 203.792 125.831 199.609 125.829L187.794 125.829C183.61 125.829 180.218 129.221 180.219 133.406C180.219 135.497 181.067 137.392 182.437 138.762C183.807 140.133 185.702 140.981 187.794 140.981L199.608 140.98C203.792 140.98 207.184 137.588 207.184 133.404Z" fill="white" stroke="white" stroke-width="1.56251"/>
</g>
</svg>
