<svg width="218" height="164" viewBox="0 0 218 164" fill="none" xmlns="http://www.w3.org/2000/svg">
<path d="M27.25 0.25C20.0229 0.25 13.0917 3.12097 7.98134 8.23134C2.87097 13.3417 0 20.2729 0 27.5L0 136.5C0 143.727 2.87097 150.658 7.98134 155.769C13.0917 160.879 20.0229 163.75 27.25 163.75H190.75C197.977 163.75 204.908 160.879 210.019 155.769C215.129 150.658 218 143.727 218 136.5V27.5C218 20.2729 215.129 13.3417 210.019 8.23134C204.908 3.12097 197.977 0.25 190.75 0.25H27.25ZM13.625 27.5C13.625 23.8864 15.0605 20.4209 17.6157 17.8657C20.1709 15.3105 23.6364 13.875 27.25 13.875H190.75C194.364 13.875 197.829 15.3105 200.384 17.8657C202.94 20.4209 204.375 23.8864 204.375 27.5V136.5C204.375 140.114 202.94 143.579 200.384 146.134C197.829 148.69 194.364 150.125 190.75 150.125H122.08C122.443 147.9 122.625 145.629 122.625 143.312C122.625 116.975 98.2363 95.625 68.125 95.625C39.7033 95.625 16.35 114.673 13.843 138.966C13.6956 138.152 13.6227 137.327 13.625 136.5V27.5Z" fill="white"/>
</svg>
