<svg width="567" height="582" viewBox="0 0 567 582" fill="none" xmlns="http://www.w3.org/2000/svg">
<path d="M521.641 290.04C523.061 288.619 523.859 286.692 523.859 284.684L523.859 261.666L523.858 261.666C523.858 261.657 523.859 261.648 523.859 261.639L523.728 224.152C523.713 219.977 520.327 216.603 516.152 216.603L511.375 216.603L511.375 209.921C511.376 205.738 507.983 202.348 503.8 202.346C499.616 202.346 496.224 205.738 496.225 209.923L496.225 216.601L174.019 216.602L174.019 209.968C174.019 205.784 170.628 202.393 166.443 202.393C162.259 202.393 158.868 205.784 158.868 209.968L158.868 216.923C154.163 217.403 149.562 218.434 145.145 219.983C139.735 215.859 133.061 213.566 126.203 213.567C108.99 213.567 94.9856 227.571 94.9849 244.785C94.9843 253.153 98.3143 261.052 104.103 266.84C104.58 267.317 105.081 267.775 105.591 268.223C105.451 269.215 105.331 270.213 105.241 271.218L103.618 289.267C103.255 293.281 106.101 296.874 110.091 297.444C120.198 298.886 129.059 304.243 135.033 312.522C141.009 320.8 143.302 330.894 141.49 340.942L124.43 435.512C122.805 444.524 125.24 453.721 131.112 460.747C131.708 461.461 132.332 462.143 132.982 462.794C138.738 468.55 146.533 471.803 154.761 471.804L202.126 471.802C212.491 471.802 221.44 464.416 223.403 454.239L236.372 387.031C239.469 370.986 253.576 359.34 269.918 359.34L304.11 359.34C324.557 359.34 342.553 346.279 348.888 326.837L353.18 313.665C355.66 306.055 362.658 300.924 370.641 300.819L420.269 300.808C422.278 300.807 424.204 300.01 425.625 298.589C427.046 297.169 427.844 295.242 427.843 293.233L427.843 292.259L516.288 292.259C518.293 292.258 520.22 291.46 521.641 290.04ZM110.134 244.786C110.134 235.926 117.342 228.718 126.203 228.718C127.013 228.718 127.807 228.796 128.591 228.911C127.191 229.982 125.829 231.113 124.515 232.313C118.893 237.452 114.369 243.541 111.092 250.243C110.47 248.518 110.134 246.677 110.134 244.786ZM274.567 344.034C269.459 343.802 264.726 341.925 261.141 338.693C257.541 335.444 255.532 331.155 255.532 326.655C255.531 314.529 265.149 304.344 278.052 301.635C272.209 314.852 271.949 331.023 277.394 344.19C277.394 344.19 274.926 344.05 274.567 344.034ZM304.108 344.191L294.562 344.191C286.096 332.452 286.75 312.431 296.036 300.91L327.321 300.872L327.321 300.94C332.338 300.972 335.96 302.05 337.504 303.951C339.217 306.061 338.588 309.442 338.581 309.475L338.606 309.361C338.606 309.361 338.623 309.359 338.646 309.354L334.48 322.141C330.183 335.33 317.978 344.19 304.108 344.191ZM412.746 285.658L284.88 285.772C260.342 285.773 240.381 304.114 240.38 326.654C240.38 334.872 243.635 342.593 249.586 348.596C235.384 355.047 224.599 368.068 221.494 384.16L208.525 451.368C207.933 454.429 205.242 456.651 202.123 456.651L154.76 456.652C150.104 456.651 145.721 454.597 142.736 451.029C139.751 447.457 138.513 442.781 139.338 438.199L156.398 343.629C158.948 329.496 155.722 315.298 147.317 303.652C145.73 301.455 143.996 299.412 142.139 297.518L198.95 297.518C203.135 297.518 206.526 294.126 206.526 289.943C206.524 285.758 203.134 282.367 198.95 282.367L119.45 282.367L120.331 272.573C121.904 255.095 133.125 240.847 148.511 234.835L148.511 258.796C148.511 260.889 149.359 262.783 150.73 264.153C152.1 265.524 153.994 266.372 156.087 266.372C160.27 266.372 163.662 262.98 163.661 258.797L163.661 231.783C164.104 231.77 164.545 231.751 164.991 231.751L174.159 231.751L174.159 258.797C174.159 260.889 175.007 262.783 176.378 264.154C177.748 265.524 179.643 266.373 181.735 266.372C185.919 266.372 189.311 262.981 189.309 258.798L189.309 231.753L199.807 231.753L199.806 258.797C199.806 260.89 200.654 262.783 202.025 264.154C203.395 265.525 205.29 266.374 207.381 266.372C211.565 266.374 214.957 262.982 214.957 258.797L214.957 231.752L225.455 231.752L225.455 258.797C225.455 260.889 226.304 262.783 227.674 264.154C229.044 265.524 230.939 266.373 233.031 266.372C237.216 266.372 240.607 262.981 240.606 258.797L240.606 231.752L508.604 231.754L508.683 254.091L446.231 254.091C437.273 254.091 428.848 257.58 422.513 263.915C416.645 269.782 413.219 277.442 412.746 285.658ZM431.161 277.108C431.774 276.233 432.455 275.398 433.226 274.628C436.7 271.154 441.319 269.242 446.231 269.241L508.709 269.241L508.709 277.11L431.161 277.108Z" fill="white" stroke="white" stroke-width="1.56251"/>
<path d="M223.768 359.009C223.621 354.826 220.114 351.556 215.932 351.702L172.999 353.201C168.817 353.345 165.546 356.854 165.692 361.035C165.765 363.126 166.679 364.99 168.097 366.311C169.514 367.633 171.437 368.415 173.528 368.342L216.462 366.842C220.643 366.698 223.914 363.191 223.768 359.009Z" fill="white" stroke="white" stroke-width="1.56251"/>
<path d="M217.594 386.091C217.447 381.908 213.94 378.638 209.758 378.784L170.044 380.171C165.863 380.316 162.592 383.824 162.738 388.004C162.811 390.096 163.725 391.959 165.142 393.281C166.56 394.603 168.483 395.385 170.574 395.311L210.288 393.924C214.47 393.78 217.74 390.273 217.594 386.091Z" fill="white" stroke="white" stroke-width="1.56251"/>
<path d="M210.885 413.193C210.738 409.01 207.231 405.74 203.05 405.886L167.629 407.123C163.446 407.268 160.175 410.776 160.322 414.957C160.395 417.049 161.309 418.912 162.726 420.234C164.144 421.555 166.067 422.337 168.157 422.264L203.578 421.027C207.76 420.881 211.032 417.373 210.885 413.193Z" fill="white" stroke="white" stroke-width="1.56251"/>
<path d="M206.321 440.217C206.174 436.036 202.668 432.765 198.486 432.91L163.065 434.147C158.882 434.293 155.611 437.801 155.758 441.982C155.831 444.073 156.744 445.936 158.162 447.258C159.579 448.58 161.502 449.362 163.593 449.288L199.014 448.052C203.196 447.907 206.467 444.398 206.321 440.217Z" fill="white" stroke="white" stroke-width="1.56251"/>
<path d="M244.099 291.139C243.955 286.959 240.445 283.688 236.265 283.833L224.457 284.245C220.275 284.391 217.005 287.899 217.151 292.081C217.224 294.172 218.137 296.036 219.555 297.357C220.972 298.679 222.895 299.461 224.986 299.388L236.793 298.975C240.975 298.829 244.246 295.32 244.099 291.139Z" fill="white" stroke="white" stroke-width="1.56251"/>
</svg>
